<svg xmlns="http://www.w3.org/2000/svg" xmlns:xlink="http://www.w3.org/1999/xlink" width="500" zoomAndPan="magnify" viewBox="0 0 375 374.999991" height="500" preserveAspectRatio="xMidYMid meet" version="1.2"><defs><clipPath id="567e51e2ab"><path d="M 112.5 176 L 262.5 176 L 262.5 201.929688 L 112.5 201.929688 Z M 112.5 176 "/></clipPath></defs><g id="1668f7072e"><g clip-rule="nonzero" clip-path="url(#567e51e2ab)"><path style=" stroke:none;fill-rule:nonzero;fill:#ffffff;fill-opacity:1;" d="M 122.398438 196.132812 C 120.613281 196.132812 118.960938 195.6875 117.433594 194.824219 C 115.910156 193.960938 114.722656 192.757812 113.816406 191.238281 C 112.9375 189.722656 112.5 188.019531 112.5 186.136719 C 112.5 184.25 112.9375 182.574219 113.816406 181.058594 C 114.722656 179.539062 115.910156 178.335938 117.433594 177.445312 C 118.960938 176.582031 120.613281 176.164062 122.398438 176.164062 C 123.816406 176.164062 125.136719 176.425781 126.375 176.949219 C 127.617188 177.472656 128.625 178.179688 129.449219 179.121094 L 127.382812 181.214844 C 126.761719 180.507812 126.039062 179.984375 125.160156 179.617188 C 124.308594 179.25 123.378906 179.070312 122.34375 179.070312 C 121.128906 179.070312 119.992188 179.355469 118.933594 179.957031 C 117.875 180.558594 117.046875 181.371094 116.402344 182.472656 C 115.753906 183.570312 115.445312 184.800781 115.445312 186.214844 C 115.445312 187.628906 115.753906 188.855469 116.402344 189.957031 C 117.046875 191.054688 117.875 191.867188 118.933594 192.46875 C 119.992188 193.046875 121.128906 193.359375 122.371094 193.359375 C 123.507812 193.359375 124.4375 193.203125 125.1875 192.863281 C 125.9375 192.523438 126.609375 192.078125 127.230469 191.5 C 127.617188 191.109375 127.953125 190.609375 128.210938 190.035156 C 128.496094 189.460938 128.675781 188.804688 128.753906 188.125 L 122.371094 188.125 L 122.371094 185.351562 L 131.570312 185.351562 C 131.648438 185.847656 131.699219 186.371094 131.699219 186.894531 C 131.699219 188.097656 131.519531 189.277344 131.15625 190.402344 C 130.792969 191.5 130.199219 192.46875 129.398438 193.28125 C 127.617188 195.164062 125.289062 196.132812 122.398438 196.132812 Z M 140.019531 196.132812 C 138.675781 196.132812 137.460938 195.820312 136.375 195.191406 C 135.316406 194.5625 134.464844 193.671875 133.871094 192.574219 C 133.273438 191.472656 132.964844 190.246094 132.964844 188.882812 C 132.964844 187.523438 133.273438 186.292969 133.871094 185.191406 C 134.464844 184.09375 135.289062 183.230469 136.375 182.601562 C 137.433594 181.972656 138.648438 181.632812 140.019531 181.632812 C 141.390625 181.632812 142.578125 181.949219 143.664062 182.601562 C 144.75 183.257812 145.574219 184.121094 146.167969 185.21875 C 146.761719 186.320312 147.074219 187.546875 147.074219 188.882812 C 147.074219 190.246094 146.761719 191.472656 146.167969 192.574219 C 145.574219 193.671875 144.75 194.535156 143.664062 195.191406 C 142.578125 195.820312 141.390625 196.132812 140.019531 196.132812 Z M 140.019531 193.4375 C 140.769531 193.4375 141.441406 193.253906 142.085938 192.914062 C 142.707031 192.546875 143.222656 192.023438 143.585938 191.34375 C 143.972656 190.636719 144.152344 189.851562 144.152344 188.910156 C 144.152344 187.992188 143.972656 187.183594 143.585938 186.5 C 143.222656 185.820312 142.707031 185.296875 142.085938 184.957031 C 141.464844 184.589844 140.769531 184.40625 140.019531 184.40625 C 139.269531 184.40625 138.597656 184.589844 137.953125 184.957031 C 137.332031 185.324219 136.816406 185.820312 136.425781 186.5 C 136.066406 187.183594 135.886719 187.96875 135.886719 188.910156 C 135.886719 189.824219 136.066406 190.636719 136.425781 191.34375 C 136.816406 192.023438 137.332031 192.546875 137.953125 192.914062 C 138.597656 193.253906 139.296875 193.4375 140.019531 193.4375 Z M 155.238281 196.132812 C 153.894531 196.132812 152.679688 195.820312 151.59375 195.191406 C 150.535156 194.5625 149.683594 193.671875 149.089844 192.574219 C 148.496094 191.472656 148.183594 190.246094 148.183594 188.882812 C 148.183594 187.523438 148.496094 186.292969 149.089844 185.191406 C 149.683594 184.09375 150.511719 183.230469 151.59375 182.601562 C 152.65625 181.972656 153.871094 181.632812 155.238281 181.632812 C 156.582031 181.632812 157.796875 181.949219 158.882812 182.601562 C 159.941406 183.230469 160.792969 184.121094 161.390625 185.21875 C 161.984375 186.320312 162.292969 187.546875 162.292969 188.882812 C 162.292969 190.246094 161.984375 191.472656 161.390625 192.574219 C 160.792969 193.671875 159.96875 194.535156 158.882812 195.191406 C 157.796875 195.820312 156.609375 196.132812 155.238281 196.132812 Z M 155.238281 193.4375 C 155.988281 193.4375 156.660156 193.253906 157.304688 192.914062 C 157.925781 192.546875 158.441406 192.023438 158.804688 191.34375 C 159.191406 190.636719 159.375 189.851562 159.375 188.910156 C 159.375 187.992188 159.191406 187.183594 158.804688 186.5 C 158.441406 185.820312 157.925781 185.296875 157.304688 184.957031 C 156.6875 184.589844 155.988281 184.40625 155.238281 184.40625 C 154.488281 184.40625 153.816406 184.589844 153.171875 184.957031 C 152.550781 185.324219 152.035156 185.820312 151.648438 186.5 C 151.285156 187.183594 151.105469 187.96875 151.105469 188.910156 C 151.105469 189.824219 151.285156 190.636719 151.648438 191.34375 C 152.035156 192.023438 152.550781 192.546875 153.171875 192.914062 C 153.816406 193.253906 154.515625 193.4375 155.238281 193.4375 Z M 170.226562 201.890625 C 168.574219 201.890625 167.203125 201.5 166.117188 200.738281 C 165.058594 199.980469 164.335938 199.066406 163.945312 198.019531 L 166.660156 196.867188 C 166.945312 197.574219 167.382812 198.148438 168.003906 198.566406 C 168.625 199.011719 169.375 199.222656 170.226562 199.222656 C 171.464844 199.222656 172.421875 198.855469 173.09375 198.097656 C 173.792969 197.363281 174.152344 196.34375 174.152344 195.007812 L 174.152344 193.75 L 174 193.75 C 173.558594 194.378906 172.964844 194.902344 172.242188 195.269531 C 171.519531 195.636719 170.691406 195.792969 169.734375 195.792969 C 168.597656 195.792969 167.566406 195.503906 166.609375 194.902344 C 165.652344 194.328125 164.878906 193.488281 164.28125 192.417969 C 163.714844 191.34375 163.429688 190.085938 163.429688 188.699219 C 163.429688 187.3125 163.714844 186.082031 164.28125 185.007812 C 164.851562 183.9375 165.625 183.097656 166.609375 182.496094 C 167.566406 181.894531 168.625 181.582031 169.734375 181.582031 C 170.664062 181.582031 171.492188 181.765625 172.242188 182.128906 C 172.992188 182.496094 173.558594 183.019531 174 183.648438 L 174.152344 183.648438 L 174.152344 182 L 176.917969 182 L 176.917969 194.878906 C 176.917969 196.34375 176.632812 197.597656 176.066406 198.644531 C 175.496094 199.691406 174.722656 200.476562 173.6875 201.027344 C 172.707031 201.628906 171.542969 201.890625 170.226562 201.890625 Z M 170.25 193.148438 C 170.949219 193.148438 171.59375 192.992188 172.191406 192.652344 C 172.785156 192.285156 173.25 191.789062 173.609375 191.132812 C 173.972656 190.453125 174.128906 189.667969 174.128906 188.753906 C 174.128906 187.367188 173.742188 186.292969 172.992188 185.53125 C 172.242188 184.746094 171.335938 184.355469 170.226562 184.355469 C 169.503906 184.355469 168.855469 184.539062 168.238281 184.878906 C 167.640625 185.21875 167.175781 185.714844 166.816406 186.371094 C 166.453125 187.023438 166.296875 187.808594 166.296875 188.753906 C 166.296875 189.695312 166.480469 190.480469 166.816406 191.132812 C 167.175781 191.789062 167.640625 192.3125 168.238281 192.652344 C 168.882812 192.992188 169.527344 193.148438 170.25 193.148438 Z M 179.527344 176.582031 L 182.421875 176.582031 L 182.421875 195.6875 L 179.527344 195.6875 Z M 191.054688 196.132812 C 189.734375 196.132812 188.546875 195.820312 187.488281 195.191406 C 186.453125 194.5625 185.625 193.726562 185.03125 192.625 C 184.464844 191.527344 184.152344 190.296875 184.152344 188.910156 C 184.152344 187.601562 184.4375 186.398438 185.007812 185.296875 C 185.574219 184.171875 186.375 183.28125 187.410156 182.628906 C 188.441406 181.972656 189.605469 181.660156 190.898438 181.660156 C 192.242188 181.660156 193.429688 181.972656 194.414062 182.574219 C 195.417969 183.175781 196.167969 184.015625 196.6875 185.0625 C 197.203125 186.109375 197.488281 187.285156 197.488281 188.621094 C 197.488281 188.882812 197.460938 189.171875 197.410156 189.5625 L 187.097656 189.5625 C 187.203125 190.820312 187.640625 191.816406 188.417969 192.496094 C 189.21875 193.175781 190.121094 193.515625 191.15625 193.515625 C 191.984375 193.515625 192.707031 193.332031 193.300781 192.964844 C 193.921875 192.574219 194.414062 192.050781 194.773438 191.394531 L 197.230469 192.574219 C 196.609375 193.699219 195.78125 194.5625 194.75 195.21875 C 193.714844 195.792969 192.472656 196.132812 191.054688 196.132812 Z M 194.515625 187.285156 C 194.488281 186.816406 194.335938 186.34375 194.078125 185.875 C 193.816406 185.402344 193.40625 184.984375 192.863281 184.667969 C 192.34375 184.355469 191.671875 184.199219 190.921875 184.199219 C 189.992188 184.199219 189.191406 184.484375 188.546875 185.0625 C 187.925781 185.613281 187.488281 186.371094 187.230469 187.3125 Z M 205.1875 176.582031 L 216.660156 176.582031 L 216.660156 179.433594 L 208.160156 179.433594 L 208.160156 184.929688 L 215.832031 184.929688 L 215.832031 187.757812 L 208.160156 187.757812 L 208.160156 195.6875 L 205.214844 195.6875 L 205.214844 176.582031 C 205.214844 176.582031 205.1875 176.582031 205.1875 176.582031 Z M 219.914062 180.117188 C 219.375 180.117188 218.910156 179.933594 218.519531 179.566406 C 218.160156 179.171875 217.976562 178.703125 217.976562 178.152344 C 217.976562 177.601562 218.160156 177.132812 218.519531 176.765625 C 218.910156 176.371094 219.375 176.1875 219.914062 176.1875 C 220.457031 176.1875 220.921875 176.371094 221.285156 176.765625 C 221.671875 177.132812 221.855469 177.601562 221.855469 178.152344 C 221.855469 178.703125 221.671875 179.171875 221.285156 179.566406 C 220.921875 179.933594 220.457031 180.117188 219.914062 180.117188 Z M 218.46875 182.078125 L 221.363281 182.078125 L 221.363281 195.6875 L 218.46875 195.6875 Z M 229.554688 195.925781 C 228.960938 195.925781 228.390625 195.820312 227.875 195.636719 C 227.359375 195.453125 226.917969 195.191406 226.582031 194.851562 C 225.832031 194.09375 225.445312 193.046875 225.445312 191.734375 L 225.445312 184.667969 L 223.09375 184.667969 L 223.09375 182.078125 L 225.445312 182.078125 L 225.445312 178.230469 L 228.339844 178.230469 L 228.339844 182.078125 L 231.59375 182.078125 L 231.59375 184.667969 L 228.339844 184.667969 L 228.339844 191.082031 C 228.339844 191.816406 228.46875 192.339844 228.753906 192.625 C 229.011719 192.992188 229.476562 193.148438 230.121094 193.148438 C 230.433594 193.148438 230.691406 193.125 230.921875 193.046875 C 231.15625 192.964844 231.390625 192.835938 231.671875 192.652344 L 231.671875 195.503906 C 231.078125 195.765625 230.382812 195.925781 229.554688 195.925781 Z M 240.871094 196.132812 C 239.914062 196.132812 239.0625 195.925781 238.3125 195.503906 C 237.566406 195.085938 236.996094 194.5625 236.609375 193.960938 L 236.480469 193.960938 L 236.480469 195.714844 L 233.714844 195.714844 L 233.714844 176.609375 L 236.609375 176.609375 L 236.609375 181.972656 L 236.480469 183.882812 L 236.609375 183.882812 C 236.996094 183.257812 237.566406 182.734375 238.3125 182.3125 C 239.0625 181.894531 239.914062 181.6875 240.871094 181.6875 C 242.085938 181.6875 243.171875 182 244.179688 182.628906 C 245.1875 183.257812 245.9375 184.121094 246.503906 185.21875 C 247.074219 186.292969 247.382812 187.546875 247.382812 188.9375 C 247.382812 190.324219 247.097656 191.578125 246.503906 192.679688 C 245.9375 193.75 245.160156 194.617188 244.179688 195.242188 C 243.199219 195.871094 242.085938 196.132812 240.871094 196.132812 Z M 240.457031 193.4375 C 241.15625 193.4375 241.828125 193.253906 242.421875 192.886719 C 243.042969 192.523438 243.535156 191.972656 243.894531 191.292969 C 244.257812 190.609375 244.4375 189.800781 244.4375 188.910156 C 244.4375 188.019531 244.257812 187.234375 243.894531 186.554688 C 243.535156 185.847656 243.042969 185.324219 242.421875 184.957031 C 241.800781 184.589844 241.15625 184.40625 240.457031 184.40625 C 239.761719 184.40625 239.089844 184.589844 238.496094 184.957031 C 237.902344 185.324219 237.410156 185.875 237.046875 186.554688 C 236.6875 187.234375 236.503906 188.019531 236.503906 188.910156 C 236.503906 189.800781 236.6875 190.585938 237.046875 191.292969 C 237.410156 191.996094 237.902344 192.523438 238.496094 192.886719 C 239.089844 193.253906 239.761719 193.4375 240.457031 193.4375 Z M 250.742188 180.117188 C 250.199219 180.117188 249.734375 179.933594 249.347656 179.566406 C 248.984375 179.171875 248.804688 178.703125 248.804688 178.152344 C 248.804688 177.601562 248.984375 177.132812 249.347656 176.765625 C 249.734375 176.371094 250.199219 176.1875 250.742188 176.1875 C 251.285156 176.1875 251.75 176.371094 252.113281 176.765625 C 252.5 177.132812 252.679688 177.601562 252.679688 178.152344 C 252.679688 178.703125 252.5 179.171875 252.113281 179.566406 C 251.75 179.933594 251.285156 180.117188 250.742188 180.117188 Z M 249.296875 182.078125 L 252.191406 182.078125 L 252.191406 195.6875 L 249.296875 195.6875 Z M 260.382812 195.925781 C 259.785156 195.925781 259.21875 195.820312 258.703125 195.636719 C 258.183594 195.453125 257.746094 195.191406 257.410156 194.851562 C 256.660156 194.09375 256.273438 193.046875 256.273438 191.734375 L 256.273438 184.667969 L 253.921875 184.667969 L 253.921875 182.078125 L 256.273438 182.078125 L 256.273438 178.230469 L 259.167969 178.230469 L 259.167969 182.078125 L 262.421875 182.078125 L 262.421875 184.667969 L 259.167969 184.667969 L 259.167969 191.082031 C 259.167969 191.816406 259.296875 192.339844 259.578125 192.625 C 259.839844 192.992188 260.304688 193.148438 260.949219 193.148438 C 261.257812 193.148438 261.519531 193.125 261.75 193.046875 C 261.984375 192.964844 262.214844 192.835938 262.5 192.652344 L 262.5 195.503906 C 261.90625 195.765625 261.207031 195.925781 260.382812 195.925781 Z M 260.382812 195.925781 "/></g></g></svg>