<svg xmlns="http://www.w3.org/2000/svg" xmlns:xlink="http://www.w3.org/1999/xlink" width="500" zoomAndPan="magnify" viewBox="0 0 375 374.999991" height="500" preserveAspectRatio="xMidYMid meet" version="1.2"><defs><clipPath id="19e13127b9"><path d="M 112.5 152.882812 L 262.5 152.882812 L 262.5 221 L 112.5 221 Z M 112.5 152.882812 "/></clipPath></defs><g id="1b9992a1c7"><g clip-rule="nonzero" clip-path="url(#19e13127b9)"><path style=" stroke:none;fill-rule:evenodd;fill:#ffffff;fill-opacity:1;" d="M 196.554688 212.648438 C 195.617188 212.6875 195.695312 211.832031 197.0625 211.675781 C 199.867188 211.363281 202.480469 209.84375 204 206.800781 C 205.988281 202.824219 204.390625 198.964844 203.105469 197.289062 C 201.464844 195.183594 202.089844 195.496094 203.570312 196.277344 C 204.898438 196.976562 206.300781 197.875 207.859375 199.238281 C 206.574219 188.554688 210.980469 180.601562 214.332031 176.472656 C 216.042969 174.378906 215.75 175.925781 215.480469 177.34375 L 215.460938 177.445312 C 214.761719 181.304688 215.191406 185.789062 216.203125 188.789062 C 215.8125 183.175781 218.464844 152.882812 238.230469 152.882812 C 257.957031 152.882812 265.988281 174.5625 260.140625 192.027344 C 254.644531 208.4375 236.515625 209.765625 233.707031 209.765625 C 237.839844 210.777344 241.582031 210.386719 243.609375 209.960938 C 243.683594 209.945312 243.757812 209.929688 243.839844 209.914062 C 244.664062 209.746094 245.761719 209.527344 244.234375 210.699219 C 239.554688 214.324219 234.332031 216.507812 228.640625 217.171875 C 223.414062 217.757812 219.242188 216.976562 216.320312 216.117188 C 216.398438 217.132812 216.4375 218.496094 216.398438 219.433594 C 216.339844 220.429688 216.273438 220.332031 215.84375 219.699219 C 215.398438 219.050781 214.570312 217.832031 212.96875 216.664062 C 210.011719 214.527344 206.925781 214.480469 205.917969 214.464844 C 205.699219 214.464844 205.578125 214.460938 205.574219 214.441406 C 205.570312 214.414062 205.753906 214.359375 206.171875 214.230469 C 206.296875 214.191406 206.441406 214.144531 206.613281 214.09375 C 211.71875 212.492188 216.828125 210.347656 222.792969 206.21875 C 231.132812 200.40625 235.617188 193.820312 235.304688 193.585938 C 235.289062 193.574219 235.152344 193.726562 234.894531 194.011719 C 233.300781 195.78125 227.070312 202.6875 216.359375 207.660156 C 208.445312 211.285156 200.84375 212.375 196.554688 212.648438 Z M 144.820312 184.460938 C 146.925781 184.8125 145.210938 188.324219 142.910156 188.515625 C 142.835938 188.523438 142.636719 188.535156 142.335938 188.550781 C 141.101562 188.617188 138.160156 188.773438 135.269531 189.179688 C 134.878906 190.15625 134.488281 191.167969 134.101562 192.222656 C 129.929688 203.566406 128.601562 211.128906 128.289062 213.507812 C 127.980469 215.847656 122.132812 213.625 122.246094 209.492188 C 122.324219 206.21875 124.429688 198.109375 126.300781 191.949219 C 123.964844 193.117188 122.054688 194.597656 121.3125 196.199219 C 118.777344 196.316406 115.542969 194.015625 117.179688 190.777344 C 118.777344 187.542969 123.730469 186.21875 128.523438 185.4375 C 131.410156 177.328125 133.90625 171.480469 135.542969 169.21875 C 135.582031 169.179688 135.609375 169.140625 135.640625 169.101562 C 135.667969 169.0625 135.699219 169.023438 135.738281 168.984375 C 125.132812 170.972656 120.105469 174.636719 118 177.71875 C 112.5 177.601562 109.460938 169.804688 117.0625 166.296875 C 124.507812 162.863281 135.972656 161.890625 147.082031 161.96875 C 158.269531 162.046875 166.613281 163.800781 169.421875 164.851562 C 171.566406 165.671875 169.847656 169.0625 167.628906 168.945312 C 167.28125 168.929688 166.6875 168.832031 165.847656 168.695312 C 162.695312 168.179688 156.125 167.105469 146.613281 167.660156 C 146.613281 167.753906 146.566406 167.84375 146.507812 167.957031 C 146.492188 167.988281 146.472656 168.015625 146.457031 168.050781 C 144.273438 170.699219 140.726562 176.546875 137.257812 184.460938 C 140.882812 184.269531 143.964844 184.347656 144.820312 184.460938 Z M 171.875 189.726562 C 173.203125 188.167969 176.203125 185.398438 180.492188 185.320312 C 185.09375 185.203125 189.769531 190.15625 185.210938 202.125 C 182.285156 209.804688 177.140625 216.117188 169.847656 216.082031 C 165.796875 216.082031 163.496094 213 162.949219 208.984375 C 160.53125 211.910156 155.816406 216.117188 150.980469 216.117188 C 144.078125 216.117188 143.964844 207.660156 148.367188 194.171875 C 151.914062 183.332031 156.398438 177.132812 158.113281 175.964844 C 162.441406 173 169.265625 176.042969 166.847656 178.304688 C 165.601562 179.472656 160.296875 186.800781 156.789062 195.613281 C 153.242188 204.382812 152.8125 209.023438 155.503906 209.023438 C 157.957031 209.023438 162.324219 204.304688 163.535156 202.394531 C 163.578125 202.21875 163.636719 202.050781 163.691406 201.890625 C 163.734375 201.769531 163.773438 201.65625 163.804688 201.539062 C 165.757812 195.730469 168.328125 191.402344 170.199219 190.234375 C 170.707031 189.921875 171.253906 189.765625 171.875 189.726562 Z M 172.265625 208.867188 C 175.582031 208.867188 178.894531 204.851562 180.84375 200.136719 C 182.363281 196.351562 182.246094 191.597656 179.285156 191.636719 C 178.425781 191.675781 177.722656 191.988281 177.140625 192.453125 C 177.179688 192.84375 177.0625 193.234375 176.75 193.585938 C 175.929688 194.578125 172.972656 198.84375 171.84375 200.480469 C 171.683594 200.707031 171.5625 200.882812 171.488281 200.992188 C 169.65625 204.382812 169.730469 208.867188 172.265625 208.867188 Z M 172.265625 208.867188 "/></g></g></svg>