<svg xmlns="http://www.w3.org/2000/svg" xmlns:xlink="http://www.w3.org/1999/xlink" width="500" zoomAndPan="magnify" viewBox="0 0 375 374.999991" height="500" preserveAspectRatio="xMidYMid meet" version="1.2"><defs><clipPath id="850b128cb6"><path d="M 112.5 176.703125 L 262.5 176.703125 L 262.5 198.453125 L 112.5 198.453125 Z M 112.5 176.703125 "/></clipPath></defs><g id="b83f693330"><g clip-rule="nonzero" clip-path="url(#850b128cb6)"><path style=" stroke:none;fill-rule:nonzero;fill:#ffffff;fill-opacity:1;" d="M 151.660156 178.058594 C 151.414062 177.5625 150.746094 177.144531 150.191406 177.144531 L 149.042969 177.144531 C 148.492188 177.144531 147.820312 177.5625 147.59375 178.058594 L 138.539062 196.972656 C 138.289062 197.46875 138.558594 197.832031 139.128906 197.832031 L 141.210938 197.832031 C 142.035156 197.832031 142.414062 197.449219 142.644531 196.992188 C 142.875 196.53125 143.371094 195.519531 143.464844 195.328125 C 143.601562 195.0625 144 194.890625 144.554688 194.890625 L 154.296875 194.890625 C 154.851562 194.890625 155.214844 195.003906 155.386719 195.328125 C 155.5 195.539062 156 196.4375 156.226562 196.933594 C 156.476562 197.429688 156.894531 197.832031 157.699219 197.832031 L 160.734375 197.832031 C 161.289062 197.832031 161.539062 197.410156 161.347656 197.011719 C 161.117188 196.609375 151.660156 178.058594 151.660156 178.058594 Z M 145.929688 191.96875 C 145.378906 191.96875 145.109375 191.546875 145.339844 191.050781 L 148.910156 183.410156 C 149.140625 182.894531 149.523438 182.894531 149.769531 183.410156 L 153.246094 191.050781 C 153.476562 191.566406 153.210938 191.96875 152.65625 191.96875 Z M 221.597656 178.210938 L 221.597656 196.972656 C 221.597656 197.488281 222.058594 197.851562 222.613281 197.851562 L 225.09375 197.851562 C 225.648438 197.851562 226.109375 197.488281 226.109375 196.933594 L 226.109375 178.175781 C 226.109375 177.621094 225.746094 177.160156 225.191406 177.160156 L 222.613281 177.160156 C 222.058594 177.144531 221.597656 177.488281 221.597656 178.210938 Z M 180.144531 189.960938 C 179.820312 189.503906 179.992188 188.988281 180.527344 188.835938 C 180.527344 188.835938 182.667969 188.203125 183.679688 187.265625 C 184.710938 186.351562 185.207031 185.011719 185.207031 183.292969 C 185.207031 182.167969 185.015625 181.210938 184.617188 180.429688 C 184.214844 179.664062 183.660156 179.015625 182.914062 178.539062 C 182.226562 178.058594 181.347656 177.695312 180.316406 177.488281 C 179.285156 177.257812 177.910156 177.199219 177.910156 177.199219 C 177.355469 177.179688 176.4375 177.160156 175.867188 177.160156 L 165.589844 177.160156 C 165.035156 177.160156 164.574219 177.621094 164.574219 178.175781 L 164.574219 196.933594 C 164.574219 197.488281 165.035156 197.851562 165.589844 197.851562 L 168.015625 197.851562 C 168.570312 197.851562 169.027344 197.488281 169.027344 196.933594 C 169.027344 196.933594 169.027344 189.484375 169.027344 189.484375 C 169.027344 189.484375 169.027344 189.484375 169.027344 189.464844 C 169.027344 189.464844 173.632812 189.445312 173.632812 189.445312 C 174.183594 189.445312 174.910156 189.828125 175.234375 190.285156 L 180.011719 197.03125 C 180.449219 197.621094 180.871094 197.851562 181.445312 197.851562 L 184.617188 197.851562 C 185.167969 197.851562 185.265625 197.316406 185.074219 197.046875 C 184.921875 196.761719 180.144531 189.960938 180.144531 189.960938 Z M 178.214844 186.140625 C 177.585938 186.292969 176.878906 186.3125 176.878906 186.3125 C 176.324219 186.332031 175.40625 186.351562 174.835938 186.351562 L 170.078125 186.351562 C 169.523438 186.351562 169.066406 185.890625 169.066406 185.339844 L 169.066406 181.535156 C 169.066406 180.984375 169.523438 180.523438 170.078125 180.523438 L 174.835938 180.523438 C 175.386719 180.523438 176.304688 180.542969 176.878906 180.5625 C 176.878906 180.5625 177.585938 180.582031 178.214844 180.734375 C 178.847656 180.886719 179.34375 181.078125 179.707031 181.34375 C 180.070312 181.613281 180.335938 181.917969 180.488281 182.28125 C 180.640625 182.644531 180.71875 183.027344 180.71875 183.445312 C 180.71875 183.867188 180.640625 184.25 180.488281 184.613281 C 180.335938 184.976562 180.070312 185.28125 179.707031 185.527344 C 179.34375 185.796875 178.847656 186.007812 178.214844 186.140625 Z M 251.972656 177.144531 C 251.421875 177.144531 250.960938 177.503906 250.960938 178.058594 L 250.960938 190.054688 C 250.960938 190.609375 250.636719 190.746094 250.253906 190.34375 L 238.257812 177.867188 C 237.875 177.46875 237.300781 177.144531 236.539062 177.144531 L 234.285156 177.144531 C 233.578125 177.144531 233.273438 177.523438 233.273438 177.90625 L 233.273438 197.085938 C 233.273438 197.46875 233.632812 197.832031 234.1875 197.832031 L 236.441406 197.832031 C 236.996094 197.832031 237.398438 197.527344 237.398438 197.011719 C 237.398438 196.742188 237.417969 184.363281 237.417969 184.363281 C 237.417969 183.808594 237.742188 183.675781 238.125 184.078125 L 250.636719 197.085938 C 251.039062 197.488281 251.515625 197.8125 252.375 197.8125 L 254.074219 197.8125 C 254.628906 197.8125 255.085938 197.355469 255.085938 196.800781 L 255.085938 178.15625 C 255.085938 177.601562 254.628906 177.144531 254.074219 177.144531 Z M 203.011719 188.835938 C 202.746094 189.332031 202.285156 189.332031 202.019531 188.835938 L 196.152344 178.058594 C 195.90625 177.5625 195.390625 177.144531 194.683594 177.144531 L 191.492188 177.144531 C 190.9375 177.144531 190.480469 177.601562 190.480469 178.15625 L 190.480469 196.875 C 190.480469 197.429688 190.84375 197.8125 191.492188 197.8125 L 193.480469 197.8125 C 194.035156 197.8125 194.453125 197.46875 194.453125 196.914062 C 194.453125 196.648438 194.453125 183.292969 194.472656 183.292969 C 194.492188 183.292969 201.808594 196.914062 201.808594 196.914062 C 202.074219 197.410156 202.726562 197.410156 202.992188 196.914062 C 202.992188 196.914062 210.367188 183.332031 210.386719 183.332031 C 210.40625 183.332031 210.40625 196.53125 210.40625 196.914062 C 210.40625 197.449219 210.84375 197.8125 211.398438 197.8125 L 213.671875 197.8125 C 214.226562 197.8125 214.683594 197.527344 214.683594 196.800781 L 214.683594 178.175781 C 214.683594 177.621094 214.226562 177.160156 213.671875 177.160156 L 210.613281 177.160156 C 209.832031 177.160156 209.375 177.5625 209.085938 178.039062 Z M 112.5 187.476562 C 112.5 197.582031 122.835938 198.097656 124.898438 198.097656 C 131.757812 198.097656 134.660156 196.246094 134.773438 196.167969 C 135.195312 195.921875 135.730469 195.445312 135.730469 194.527344 L 135.730469 187.535156 C 135.730469 186.886719 135.214844 186.371094 134.5625 186.371094 L 125.949219 186.371094 C 125.300781 186.371094 124.878906 186.886719 124.878906 187.535156 L 124.878906 188.261719 C 124.878906 188.910156 125.300781 189.425781 125.949219 189.425781 L 130.933594 189.425781 C 131.414062 189.425781 131.8125 189.828125 131.8125 190.304688 C 131.8125 190.304688 131.8125 193.363281 131.8125 193.550781 C 130.820312 193.953125 126.351562 195.273438 122.738281 194.414062 C 117.503906 193.171875 117.105469 188.851562 117.105469 187.554688 C 117.105469 186.464844 117.429688 181.039062 123.847656 180.484375 C 129.042969 180.046875 132.464844 182.128906 132.5 182.167969 C 133.113281 182.492188 133.742188 182.261719 134.085938 181.613281 C 134.085938 181.613281 134.738281 180.292969 134.738281 180.292969 C 135.003906 179.761719 134.910156 179.207031 134.257812 178.746094 C 134.203125 178.710938 130.550781 176.742188 124.917969 176.742188 C 112.84375 176.742188 112.5 186.371094 112.5 187.476562 Z M 260.148438 193.535156 C 261.449219 193.535156 262.5 194.585938 262.5 195.882812 C 262.5 197.183594 261.449219 198.234375 260.148438 198.234375 C 258.851562 198.234375 257.78125 197.183594 257.78125 195.882812 C 257.78125 194.585938 258.851562 193.535156 260.148438 193.535156 Z M 260.148438 197.90625 C 261.238281 197.90625 262.0625 197.03125 262.0625 195.902344 C 262.0625 194.773438 261.238281 193.894531 260.148438 193.894531 C 259.042969 193.894531 258.238281 194.773438 258.238281 195.902344 C 258.238281 197.03125 259.0625 197.90625 260.148438 197.90625 Z M 259.253906 194.507812 L 260.304688 194.507812 C 260.933594 194.507812 261.257812 194.757812 261.257812 195.289062 C 261.257812 195.730469 260.972656 196.054688 260.550781 196.054688 L 261.335938 197.277344 L 260.855469 197.277344 L 260.09375 196.054688 L 259.710938 196.054688 L 259.710938 197.277344 L 259.253906 197.277344 Z M 259.691406 195.691406 L 260.226562 195.691406 C 260.570312 195.691406 260.800781 195.617188 260.800781 195.253906 C 260.800781 194.929688 260.511719 194.851562 260.226562 194.851562 L 259.691406 194.851562 C 259.691406 194.851562 259.691406 195.691406 259.691406 195.691406 Z M 259.691406 195.691406 "/></g></g></svg>