<svg xmlns="http://www.w3.org/2000/svg" xmlns:xlink="http://www.w3.org/1999/xlink" width="500" zoomAndPan="magnify" viewBox="0 0 375 374.999991" height="500" preserveAspectRatio="xMidYMid meet" version="1.2"><defs><clipPath id="6fa55063a4"><path d="M 132 181 L 146 181 L 146 198.785156 L 132 198.785156 Z M 132 181 "/></clipPath><clipPath id="d0e4fa5c4a"><path d="M 146 176.285156 L 156 176.285156 L 156 194 L 146 194 Z M 146 176.285156 "/></clipPath><clipPath id="fda1640a07"><path d="M 156 176.285156 L 161 176.285156 L 161 180 L 156 180 Z M 156 176.285156 "/></clipPath><clipPath id="99359c3ae4"><path d="M 225 180 L 238 180 L 238 198.785156 L 225 198.785156 Z M 225 180 "/></clipPath><clipPath id="3b2edac26f"><path d="M 253 176.285156 L 257 176.285156 L 257 194 L 253 194 Z M 253 176.285156 "/></clipPath><clipPath id="9f6a267a37"><path d="M 258 176.285156 L 262 176.285156 L 262 179 L 258 179 Z M 258 176.285156 "/></clipPath></defs><g id="4786808b55"><path style=" stroke:none;fill-rule:evenodd;fill:#ffffff;fill-opacity:1;" d="M 125.433594 181.300781 C 124.691406 181.71875 124.089844 182.277344 123.578125 182.972656 C 123.34375 182.277344 122.925781 181.71875 122.324219 181.347656 C 121.628906 180.929688 120.835938 180.742188 120.046875 180.789062 C 119.351562 180.789062 118.65625 180.976562 118.050781 181.300781 C 117.355469 181.671875 116.796875 182.230469 116.378906 182.878906 L 116.378906 181.160156 L 113.082031 181.160156 L 113.082031 193.929688 L 116.472656 193.929688 L 116.472656 186.269531 C 116.472656 185.898438 116.519531 185.574219 116.660156 185.246094 C 116.796875 184.921875 116.984375 184.644531 117.167969 184.410156 C 117.402344 184.179688 117.679688 183.949219 118.003906 183.808594 C 118.285156 183.714844 118.609375 183.621094 118.933594 183.621094 C 119.167969 183.621094 119.351562 183.667969 119.585938 183.714844 C 119.769531 183.761719 119.957031 183.902344 120.09375 184.039062 C 120.234375 184.226562 120.375 184.457031 120.417969 184.691406 C 120.511719 185.0625 120.558594 185.433594 120.558594 185.804688 L 120.558594 193.886719 L 123.949219 193.886719 L 123.949219 186.128906 C 123.949219 185.804688 123.996094 185.480469 124.136719 185.203125 C 124.273438 184.921875 124.460938 184.644531 124.644531 184.410156 C 124.878906 184.179688 125.15625 183.949219 125.480469 183.808594 C 125.761719 183.714844 126.085938 183.621094 126.410156 183.621094 C 126.597656 183.621094 126.828125 183.667969 127.015625 183.714844 C 127.199219 183.761719 127.386719 183.902344 127.523438 184.039062 C 127.664062 184.226562 127.804688 184.457031 127.851562 184.691406 C 127.941406 185.0625 127.988281 185.433594 127.988281 185.804688 L 127.988281 193.886719 L 131.425781 193.886719 L 131.425781 185.433594 C 131.425781 183.808594 131.101562 182.648438 130.449219 181.902344 C 130.078125 181.53125 129.613281 181.253906 129.105469 181.066406 C 128.59375 180.882812 128.035156 180.789062 127.523438 180.835938 C 126.828125 180.789062 126.085938 180.976562 125.433594 181.300781 "/><g clip-rule="nonzero" clip-path="url(#6fa55063a4)"><path style=" stroke:none;fill-rule:evenodd;fill:#ffffff;fill-opacity:1;" d="M 142.152344 181.160156 L 139.414062 189.566406 L 136.441406 181.160156 L 132.492188 181.160156 L 137.789062 193.375 L 137.417969 194.441406 C 137.277344 194.90625 137.042969 195.277344 136.71875 195.601562 C 136.394531 195.835938 136.023438 195.976562 135.605469 195.929688 C 135.140625 195.929688 134.628906 195.882812 134.164062 195.742188 L 133.609375 198.296875 C 134.027344 198.4375 134.492188 198.527344 134.910156 198.621094 C 135.328125 198.667969 135.746094 198.714844 136.164062 198.714844 C 136.765625 198.714844 137.324219 198.621094 137.878906 198.4375 C 138.34375 198.25 138.714844 198.019531 139.089844 197.648438 C 139.460938 197.230469 139.785156 196.765625 140.015625 196.253906 C 140.296875 195.742188 140.527344 195.046875 140.851562 194.347656 L 145.960938 181.207031 L 142.152344 181.207031 Z M 142.152344 181.160156 "/></g><g clip-rule="nonzero" clip-path="url(#d0e4fa5c4a)"><path style=" stroke:none;fill-rule:evenodd;fill:#ffffff;fill-opacity:1;" d="M 151.207031 176.5625 C 150.699219 176.75 150.1875 177.027344 149.816406 177.351562 C 149.398438 177.726562 149.074219 178.234375 148.886719 178.746094 C 148.65625 179.394531 148.515625 180.09375 148.5625 180.789062 L 148.5625 181.207031 L 146.519531 181.207031 L 146.519531 183.855469 L 148.515625 183.855469 L 148.515625 193.929688 L 151.90625 193.929688 L 151.90625 183.855469 L 154.878906 183.855469 L 154.878906 181.207031 L 151.90625 181.207031 L 151.90625 180.695312 C 151.859375 180.464844 151.90625 180.1875 151.996094 179.953125 C 152.089844 179.722656 152.230469 179.488281 152.414062 179.351562 C 152.742188 179.117188 153.207031 178.976562 153.625 178.976562 C 154.132812 178.976562 154.644531 179.023438 155.109375 179.164062 L 155.574219 176.65625 C 155.109375 176.515625 154.644531 176.425781 154.179688 176.378906 C 153.808594 176.332031 153.34375 176.285156 152.925781 176.285156 C 152.324219 176.285156 151.765625 176.378906 151.207031 176.5625 Z M 151.207031 176.5625 "/></g><g clip-rule="nonzero" clip-path="url(#fda1640a07)"><path style=" stroke:none;fill-rule:evenodd;fill:#ffffff;fill-opacity:1;" d="M 156.875 176.472656 L 160.402344 176.472656 L 160.402344 179.582031 L 156.875 179.582031 Z M 156.875 176.472656 "/></g><path style=" stroke:none;fill-rule:evenodd;fill:#ffffff;fill-opacity:1;" d="M 156.921875 181.160156 L 160.308594 181.160156 L 160.308594 193.976562 L 156.921875 193.976562 Z M 156.921875 181.160156 "/><path style=" stroke:none;fill-rule:evenodd;fill:#ffffff;fill-opacity:1;" d="M 163.792969 177.769531 L 163.792969 181.160156 L 161.796875 181.160156 L 161.796875 183.808594 L 163.792969 183.808594 L 163.792969 189.796875 C 163.792969 191.378906 164.117188 192.492188 164.816406 193.1875 C 165.511719 193.886719 166.53125 194.210938 167.925781 194.210938 C 168.34375 194.210938 168.761719 194.164062 169.179688 194.117188 C 169.644531 194.070312 170.109375 193.929688 170.574219 193.792969 L 170.109375 191.285156 C 169.875 191.332031 169.644531 191.378906 169.414062 191.425781 C 169.179688 191.425781 168.949219 191.46875 168.714844 191.46875 C 168.34375 191.46875 167.925781 191.378906 167.648438 191.097656 C 167.507812 190.914062 167.367188 190.679688 167.277344 190.449219 C 167.183594 190.214844 167.183594 189.984375 167.230469 189.707031 L 167.230469 183.855469 L 170.15625 183.855469 L 170.15625 181.207031 L 167.230469 181.207031 L 167.230469 177.769531 Z M 163.792969 177.769531 "/><path style=" stroke:none;fill-rule:evenodd;fill:#ffffff;fill-opacity:1;" d="M 176.933594 181.300781 C 176.191406 181.671875 175.589844 182.230469 175.125 182.925781 L 175.125 181.160156 L 171.828125 181.160156 L 171.828125 193.929688 L 175.21875 193.929688 L 175.21875 186.269531 C 175.21875 185.898438 175.308594 185.574219 175.449219 185.246094 C 175.589844 184.921875 175.773438 184.644531 176.007812 184.410156 C 176.285156 184.179688 176.5625 183.992188 176.890625 183.855469 C 177.261719 183.714844 177.632812 183.667969 178.003906 183.667969 C 178.515625 183.667969 178.980469 183.808594 179.351562 184.179688 C 179.675781 184.503906 179.859375 185.109375 179.859375 186.035156 L 179.859375 194.023438 L 183.25 194.023438 L 183.25 185.527344 C 183.25 183.902344 182.878906 182.695312 182.183594 181.949219 C 181.484375 181.207031 180.417969 180.835938 178.980469 180.835938 C 178.375 180.789062 177.632812 180.976562 176.933594 181.300781 "/><path style=" stroke:none;fill-rule:evenodd;fill:#ffffff;fill-opacity:1;" d="M 189.101562 185.0625 C 189.242188 184.738281 189.378906 184.457031 189.613281 184.179688 C 189.84375 183.902344 190.171875 183.714844 190.496094 183.574219 C 190.867188 183.4375 191.285156 183.34375 191.703125 183.34375 C 192.074219 183.296875 192.445312 183.34375 192.769531 183.484375 C 193.097656 183.621094 193.421875 183.808594 193.699219 184.085938 C 194.164062 184.691406 194.394531 185.386719 194.351562 186.128906 L 188.871094 186.128906 C 188.917969 185.804688 189.007812 185.433594 189.101562 185.0625 Z M 189.242188 181.253906 C 188.5 181.53125 187.800781 181.996094 187.246094 182.601562 C 186.6875 183.203125 186.222656 183.949219 185.945312 184.738281 C 185.621094 185.664062 185.480469 186.640625 185.480469 187.617188 C 185.480469 189.753906 185.992188 191.425781 187.058594 192.585938 C 188.125 193.746094 189.707031 194.347656 191.84375 194.347656 C 193.605469 194.347656 194.953125 193.976562 195.835938 193.234375 C 196.8125 192.398438 197.414062 191.238281 197.554688 189.984375 L 194.257812 189.984375 C 194.023438 191.144531 193.234375 191.703125 191.886719 191.703125 C 191.46875 191.75 191.050781 191.65625 190.679688 191.515625 C 190.308594 191.378906 189.9375 191.144531 189.707031 190.820312 C 189.195312 190.125 188.917969 189.289062 188.917969 188.40625 L 197.738281 188.40625 L 197.738281 187.011719 C 197.738281 185.109375 197.230469 183.574219 196.253906 182.460938 C 195.277344 181.347656 193.792969 180.789062 191.84375 180.789062 C 190.914062 180.789062 190.03125 180.929688 189.242188 181.253906 "/><path style=" stroke:none;fill-rule:evenodd;fill:#ffffff;fill-opacity:1;" d="M 202.570312 181.066406 C 201.964844 181.253906 201.363281 181.484375 200.851562 181.859375 C 200.386719 182.183594 200.015625 182.601562 199.738281 183.066406 C 199.457031 183.574219 199.320312 184.132812 199.320312 184.738281 C 199.273438 185.246094 199.363281 185.757812 199.550781 186.222656 C 199.738281 186.6875 200.0625 187.105469 200.433594 187.429688 C 201.453125 188.125 202.660156 188.542969 203.871094 188.683594 L 205.632812 188.960938 C 206.097656 189.007812 206.515625 189.195312 206.886719 189.472656 C 207.121094 189.707031 207.214844 190.03125 207.214844 190.308594 C 207.214844 190.496094 207.167969 190.726562 207.074219 190.867188 C 206.980469 191.050781 206.839844 191.191406 206.65625 191.285156 C 206.097656 191.515625 205.496094 191.609375 204.9375 191.609375 C 204.332031 191.609375 203.730469 191.515625 203.171875 191.285156 C 202.894531 191.144531 202.707031 190.914062 202.523438 190.679688 C 202.335938 190.449219 202.289062 190.125 202.246094 189.84375 L 198.992188 189.84375 C 198.992188 190.589844 199.226562 191.332031 199.597656 191.980469 C 199.921875 192.539062 200.386719 193.003906 200.945312 193.328125 C 201.5 193.699219 202.152344 193.929688 202.800781 194.070312 C 203.496094 194.210938 204.242188 194.304688 204.984375 194.304688 C 206.886719 194.304688 208.28125 193.929688 209.210938 193.234375 C 209.628906 192.910156 210 192.445312 210.230469 191.933594 C 210.464844 191.425781 210.601562 190.867188 210.554688 190.308594 C 210.554688 189.753906 210.511719 189.242188 210.371094 188.730469 C 210.230469 188.265625 210 187.847656 209.628906 187.523438 C 209.257812 187.152344 208.746094 186.871094 208.234375 186.640625 C 207.539062 186.363281 206.796875 186.175781 206.003906 186.082031 L 204.425781 185.804688 C 203.914062 185.757812 203.40625 185.574219 202.941406 185.339844 C 202.800781 185.246094 202.707031 185.109375 202.660156 184.921875 C 202.617188 184.785156 202.570312 184.597656 202.570312 184.410156 C 202.570312 184.273438 202.617188 184.132812 202.660156 183.992188 C 202.753906 183.855469 202.894531 183.714844 203.035156 183.621094 C 203.265625 183.484375 203.496094 183.390625 203.730469 183.34375 C 204.101562 183.25 204.472656 183.203125 204.84375 183.25 C 205.449219 183.203125 206.050781 183.34375 206.609375 183.667969 C 207.027344 183.992188 207.257812 184.457031 207.398438 184.96875 L 210.464844 184.597656 C 210.371094 184.085938 210.230469 183.574219 210 183.066406 C 209.765625 182.601562 209.441406 182.183594 209.023438 181.859375 C 208.511719 181.484375 207.957031 181.207031 207.351562 181.023438 C 206.515625 180.789062 205.679688 180.695312 204.84375 180.695312 C 204.054688 180.789062 203.3125 180.882812 202.570312 181.066406 "/><path style=" stroke:none;fill-rule:evenodd;fill:#ffffff;fill-opacity:1;" d="M 215.246094 181.066406 C 214.644531 181.253906 214.039062 181.484375 213.527344 181.859375 C 213.0625 182.183594 212.691406 182.601562 212.414062 183.113281 C 212.136719 183.621094 211.996094 184.179688 211.996094 184.785156 C 211.949219 185.292969 212.042969 185.804688 212.226562 186.269531 C 212.414062 186.734375 212.738281 187.152344 213.109375 187.476562 C 214.132812 188.171875 215.339844 188.589844 216.546875 188.730469 L 218.3125 189.007812 C 218.777344 189.054688 219.195312 189.242188 219.566406 189.519531 C 219.796875 189.753906 219.890625 190.078125 219.890625 190.355469 C 219.890625 190.542969 219.84375 190.773438 219.75 190.914062 C 219.660156 191.097656 219.519531 191.238281 219.332031 191.332031 C 218.777344 191.5625 218.171875 191.65625 217.570312 191.65625 C 216.964844 191.65625 216.363281 191.5625 215.804688 191.332031 C 215.527344 191.191406 215.339844 190.960938 215.152344 190.726562 C 215.015625 190.449219 214.921875 190.171875 214.875 189.890625 L 211.625 189.890625 C 211.671875 190.632812 211.855469 191.378906 212.226562 192.027344 C 212.554688 192.585938 213.019531 193.050781 213.574219 193.375 C 214.132812 193.746094 214.78125 193.976562 215.433594 194.117188 C 216.128906 194.257812 216.871094 194.347656 217.613281 194.347656 C 219.519531 194.347656 220.914062 193.976562 221.839844 193.28125 C 222.257812 192.957031 222.628906 192.492188 222.863281 191.980469 C 223.09375 191.46875 223.234375 190.914062 223.1875 190.355469 C 223.1875 189.796875 223.140625 189.289062 223.003906 188.777344 C 222.863281 188.3125 222.628906 187.894531 222.257812 187.570312 C 221.839844 187.199219 221.375 186.917969 220.867188 186.734375 C 220.167969 186.453125 219.378906 186.269531 218.636719 186.175781 L 217.058594 185.898438 C 216.546875 185.851562 216.035156 185.664062 215.570312 185.433594 C 215.433594 185.339844 215.339844 185.203125 215.292969 185.015625 C 215.246094 184.875 215.199219 184.691406 215.199219 184.503906 C 215.199219 184.367188 215.246094 184.226562 215.292969 184.085938 C 215.386719 183.949219 215.527344 183.808594 215.664062 183.714844 C 215.898438 183.574219 216.128906 183.484375 216.363281 183.4375 C 216.734375 183.34375 217.105469 183.296875 217.476562 183.34375 C 218.078125 183.296875 218.730469 183.4375 219.242188 183.761719 C 219.660156 184.085938 219.890625 184.550781 219.984375 185.0625 L 223.046875 184.691406 C 222.957031 184.179688 222.816406 183.667969 222.585938 183.15625 C 222.351562 182.695312 222.027344 182.277344 221.609375 181.949219 C 221.097656 181.578125 220.539062 181.253906 219.9375 181.113281 C 219.101562 180.882812 218.265625 180.789062 217.382812 180.789062 C 216.734375 180.789062 215.988281 180.882812 215.246094 181.066406 "/><g clip-rule="nonzero" clip-path="url(#99359c3ae4)"><path style=" stroke:none;fill-rule:evenodd;fill:#ffffff;fill-opacity:1;" d="M 230.480469 191.425781 C 230.105469 191.332031 229.78125 191.097656 229.503906 190.867188 C 229.179688 190.542969 228.945312 190.125 228.851562 189.660156 C 228.714844 189.007812 228.621094 188.359375 228.667969 187.664062 L 228.667969 187.289062 C 228.667969 186.6875 228.714844 186.082031 228.898438 185.480469 C 229.039062 185.015625 229.269531 184.644531 229.644531 184.320312 C 229.921875 184.085938 230.199219 183.902344 230.523438 183.808594 C 230.851562 183.667969 231.222656 183.621094 231.59375 183.621094 C 231.964844 183.621094 232.335938 183.667969 232.660156 183.808594 C 232.984375 183.949219 233.3125 184.179688 233.542969 184.503906 C 233.820312 184.875 234.007812 185.292969 234.101562 185.757812 C 234.238281 186.363281 234.332031 187.011719 234.285156 187.664062 C 234.285156 188.265625 234.238281 188.917969 234.054688 189.519531 C 233.914062 189.984375 233.730469 190.402344 233.449219 190.773438 C 233.21875 191.097656 232.894531 191.332031 232.566406 191.46875 C 232.242188 191.609375 231.871094 191.703125 231.5 191.703125 C 231.128906 191.609375 230.804688 191.5625 230.480469 191.425781 Z M 228.527344 182.878906 L 228.527344 181.207031 L 225.230469 181.207031 L 225.230469 198.714844 L 228.621094 198.714844 L 228.621094 192.632812 C 229.085938 193.234375 229.6875 193.699219 230.386719 193.976562 C 230.988281 194.210938 231.640625 194.304688 232.289062 194.304688 C 233.078125 194.304688 233.867188 194.164062 234.613281 193.792969 C 235.308594 193.46875 235.867188 193.003906 236.328125 192.398438 C 236.839844 191.75 237.210938 191.050781 237.445312 190.261719 C 237.722656 189.378906 237.816406 188.453125 237.816406 187.476562 C 237.816406 185.386719 237.398438 183.714844 236.515625 182.507812 C 235.632812 181.300781 234.332031 180.695312 232.523438 180.695312 C 231.734375 180.695312 230.941406 180.835938 230.246094 181.207031 C 229.597656 181.671875 228.992188 182.230469 228.527344 182.878906 Z M 228.527344 182.878906 "/></g><path style=" stroke:none;fill-rule:evenodd;fill:#ffffff;fill-opacity:1;" d="M 243.0625 191.332031 C 242.925781 191.191406 242.785156 191.050781 242.738281 190.867188 C 242.644531 190.679688 242.644531 190.496094 242.644531 190.308594 C 242.644531 190.03125 242.691406 189.796875 242.785156 189.566406 C 242.878906 189.335938 243.0625 189.101562 243.25 188.960938 C 243.574219 188.777344 243.898438 188.636719 244.269531 188.542969 C 244.828125 188.40625 245.433594 188.359375 245.988281 188.3125 L 247.519531 188.21875 L 247.519531 188.871094 C 247.519531 189.335938 247.429688 189.753906 247.242188 190.171875 C 247.058594 190.496094 246.777344 190.820312 246.5 191.050781 C 245.851562 191.46875 245.105469 191.703125 244.363281 191.65625 C 243.851562 191.75 243.433594 191.609375 243.0625 191.332031 Z M 241.671875 181.671875 C 241.207031 181.996094 240.789062 182.414062 240.460938 182.925781 C 240.136719 183.4375 239.953125 183.992188 239.90625 184.550781 L 243.015625 184.828125 C 243.203125 183.808594 243.992188 183.296875 245.339844 183.296875 C 245.894531 183.296875 246.40625 183.4375 246.871094 183.761719 C 247.101562 183.949219 247.289062 184.226562 247.382812 184.503906 C 247.476562 184.785156 247.519531 185.109375 247.519531 185.386719 L 247.519531 186.035156 L 245.894531 186.082031 C 245.105469 186.128906 244.269531 186.222656 243.480469 186.316406 C 242.738281 186.410156 242.042969 186.640625 241.34375 186.964844 C 240.742188 187.246094 240.183594 187.707031 239.8125 188.265625 C 239.394531 188.917969 239.210938 189.660156 239.210938 190.402344 C 239.210938 191.007812 239.300781 191.5625 239.535156 192.121094 C 239.71875 192.585938 240.042969 193.003906 240.460938 193.328125 C 240.878906 193.652344 241.296875 193.886719 241.808594 194.023438 C 242.320312 194.164062 242.878906 194.257812 243.386719 194.257812 C 244.222656 194.304688 245.058594 194.117188 245.804688 193.746094 C 246.453125 193.375 247.011719 192.910156 247.519531 192.351562 L 247.519531 193.929688 L 250.726562 193.929688 L 250.726562 185.898438 C 250.726562 185.15625 250.632812 184.457031 250.445312 183.761719 C 250.261719 183.15625 249.984375 182.601562 249.566406 182.183594 C 249.101562 181.71875 248.542969 181.347656 247.9375 181.160156 C 247.148438 180.929688 246.3125 180.789062 245.433594 180.789062 C 244.132812 180.742188 242.785156 181.023438 241.671875 181.671875 "/><g clip-rule="nonzero" clip-path="url(#3b2edac26f)"><path style=" stroke:none;fill-rule:evenodd;fill:#ffffff;fill-opacity:1;" d="M 253.328125 176.472656 L 256.714844 176.472656 L 256.714844 193.976562 L 253.328125 193.976562 Z M 253.328125 176.472656 "/></g><g clip-rule="nonzero" clip-path="url(#9f6a267a37)"><path style=" stroke:none;fill-rule:nonzero;fill:#ffffff;fill-opacity:1;" d="M 259.316406 178.234375 L 259.316406 176.84375 L 259.734375 176.84375 L 259.734375 176.472656 L 258.527344 176.472656 L 258.527344 176.84375 L 258.945312 176.84375 L 258.945312 178.234375 Z M 260.339844 178.234375 L 260.339844 177.074219 L 260.847656 178.234375 L 261.035156 178.234375 L 261.546875 177.074219 L 261.546875 178.234375 L 261.964844 178.234375 L 261.964844 176.472656 L 261.453125 176.472656 L 260.941406 177.632812 L 260.429688 176.472656 L 259.875 176.472656 L 259.875 178.234375 Z M 260.339844 178.234375 "/></g></g></svg>