<svg xmlns="http://www.w3.org/2000/svg" xmlns:xlink="http://www.w3.org/1999/xlink" width="500" zoomAndPan="magnify" viewBox="0 0 375 374.999991" height="500" preserveAspectRatio="xMidYMid meet" version="1.2"><g id="f17caf00a8"><path style=" stroke:none;fill-rule:nonzero;fill:#ffffff;fill-opacity:1;" d="M 131.175781 170.90625 L 147.695312 170.90625 L 147.695312 167.34375 L 131.175781 167.34375 Z M 206.644531 189.992188 L 195.09375 189.992188 L 195.09375 178.144531 L 206.644531 178.144531 C 210.769531 178.144531 213.523438 180.523438 213.523438 184.070312 C 213.523438 187.613281 210.769531 189.992188 206.644531 189.992188 M 210.46875 192.769531 C 214.425781 191.644531 216.992188 188.230469 216.992188 184.070312 C 216.992188 178.6875 212.832031 175.070312 206.644531 175.070312 L 191.625 175.070312 L 191.625 206.90625 L 195.09375 206.90625 L 195.09375 193.125 L 206.851562 193.125 L 214.332031 206.90625 L 218.082031 206.90625 L 210.28125 192.824219 Z M 173.625 207.507812 C 182.136719 207.507812 188.0625 201.523438 188.0625 192.976562 L 188.0625 175.070312 L 184.5 175.070312 L 184.5 192.730469 C 184.5 199.332031 180.019531 203.925781 173.625 203.925781 C 168.320312 203.925781 162.601562 200.417969 162.601562 192.730469 L 162.601562 175.070312 L 159.039062 175.070312 L 159.039062 192.976562 C 159.039062 201.523438 165.039062 207.507812 173.625 207.507812 M 235.835938 179.210938 L 243.355469 195.65625 L 228.28125 195.65625 Z M 234.167969 175.070312 L 219.617188 206.90625 L 223.351562 206.90625 L 226.949219 198.75 L 244.707031 198.75 L 248.304688 206.90625 L 252.039062 206.90625 L 237.488281 175.070312 Z M 139.425781 174.46875 C 130.3125 174.46875 122.90625 181.875 122.90625 190.988281 C 122.90625 200.101562 130.3125 207.507812 139.425781 207.507812 C 148.539062 207.507812 155.945312 200.101562 155.945312 190.988281 C 155.945312 181.875 148.539062 174.46875 139.425781 174.46875 M 139.425781 203.945312 C 132.28125 203.945312 126.46875 198.132812 126.46875 190.988281 C 126.46875 183.84375 132.28125 178.03125 139.425781 178.03125 C 146.570312 178.03125 152.382812 183.84375 152.382812 190.988281 C 152.382812 198.132812 146.570312 203.945312 139.425781 203.945312 "/></g></svg>