<svg xmlns="http://www.w3.org/2000/svg" xmlns:xlink="http://www.w3.org/1999/xlink" width="500" zoomAndPan="magnify" viewBox="0 0 375 374.999991" height="500" preserveAspectRatio="xMidYMid meet" version="1.2"><g id="bbd884cc00"><path style=" stroke:none;fill-rule:nonzero;fill:#ffffff;fill-opacity:1;" d="M 146.617188 177.878906 L 149.269531 173.289062 C 150.042969 171.945312 149.585938 170.226562 148.238281 169.453125 C 146.890625 168.683594 145.164062 169.136719 144.394531 170.480469 L 141.726562 175.070312 C 136.0625 173.289062 129.71875 175.601562 126.628906 180.945312 C 124.660156 184.339844 124.417969 188.25 125.613281 191.679688 L 130.519531 183.195312 C 131.640625 181.246094 133.472656 179.855469 135.65625 179.269531 C 137.835938 178.679688 140.105469 178.980469 142.0625 180.113281 C 146.089844 182.4375 147.480469 187.601562 145.148438 191.617188 C 142.816406 195.632812 137.652344 197.023438 133.609375 194.699219 L 136.425781 189.835938 C 137.773438 190.605469 139.5 190.152344 140.273438 188.808594 C 141.046875 187.464844 140.59375 185.746094 139.242188 184.976562 C 137.894531 184.207031 136.167969 184.660156 135.398438 186.003906 L 126.433594 201.507812 C 125.660156 202.851562 126.113281 204.574219 127.460938 205.34375 C 128.808594 206.113281 130.535156 205.660156 131.308594 204.316406 L 133.972656 199.726562 C 139.636719 201.507812 145.984375 199.199219 149.074219 193.851562 C 152.160156 188.523438 150.996094 181.894531 146.617188 177.878906 Z M 146.617188 177.878906 "/><path style=" stroke:none;fill-rule:nonzero;fill:#ffffff;fill-opacity:1;" d="M 158.539062 181.214844 L 162.898438 181.214844 C 165.429688 181.214844 167.519531 182.46875 167.519531 185.367188 C 167.519531 188.265625 165.429688 189.535156 162.898438 189.535156 L 161.097656 189.535156 L 161.097656 193.597656 L 158.539062 193.597656 Z M 162.824219 187.300781 C 164.078125 187.300781 164.882812 186.742188 164.882812 185.367188 C 164.882812 183.980469 164.050781 183.464844 162.824219 183.464844 L 161.097656 183.464844 L 161.097656 187.300781 Z M 162.824219 187.300781 "/><path style=" stroke:none;fill-rule:nonzero;fill:#ffffff;fill-opacity:1;" d="M 171.257812 181.214844 L 179.464844 181.214844 L 179.464844 183.449219 L 173.816406 183.449219 L 173.816406 186.289062 L 178.800781 186.289062 L 178.800781 188.476562 L 173.816406 188.476562 L 173.816406 191.347656 L 179.722656 191.347656 L 179.722656 193.582031 L 171.257812 193.582031 Z M 171.257812 181.214844 "/><path style=" stroke:none;fill-rule:nonzero;fill:#ffffff;fill-opacity:1;" d="M 184.007812 181.214844 L 186.554688 181.214844 L 186.554688 191.347656 L 192.171875 191.347656 L 192.171875 193.582031 L 184.007812 193.582031 Z M 184.007812 181.214844 "/><path style=" stroke:none;fill-rule:nonzero;fill:#ffffff;fill-opacity:1;" d="M 195.019531 187.40625 C 195.019531 183.753906 197.867188 181.066406 201.441406 181.066406 C 205.015625 181.066406 207.859375 183.753906 207.859375 187.40625 C 207.859375 191.058594 205.015625 193.746094 201.441406 193.746094 C 197.867188 193.746094 195.019531 191.058594 195.019531 187.40625 Z M 205.226562 187.40625 C 205.226562 185.097656 203.695312 183.328125 201.441406 183.328125 C 199.183594 183.328125 197.652344 185.097656 197.652344 187.40625 C 197.652344 189.714844 199.183594 191.484375 201.441406 191.484375 C 203.695312 191.484375 205.226562 189.714844 205.226562 187.40625 Z M 205.226562 187.40625 "/><path style=" stroke:none;fill-rule:nonzero;fill:#ffffff;fill-opacity:1;" d="M 214.144531 183.449219 L 210.601562 183.449219 L 210.601562 181.214844 L 220.234375 181.214844 L 220.234375 183.449219 L 216.691406 183.449219 L 216.691406 193.582031 L 214.128906 193.582031 L 214.128906 183.449219 Z M 214.144531 183.449219 "/><path style=" stroke:none;fill-rule:nonzero;fill:#ffffff;fill-opacity:1;" d="M 222.960938 187.40625 C 222.960938 183.753906 225.804688 181.066406 229.378906 181.066406 C 232.953125 181.066406 235.800781 183.753906 235.800781 187.40625 C 235.800781 191.058594 232.953125 193.746094 229.378906 193.746094 C 225.804688 193.746094 222.960938 191.058594 222.960938 187.40625 Z M 233.167969 187.40625 C 233.167969 185.097656 231.636719 183.328125 229.378906 183.328125 C 227.125 183.328125 225.59375 185.097656 225.59375 187.40625 C 225.59375 189.714844 227.125 191.484375 229.378906 191.484375 C 231.636719 191.484375 233.167969 189.714844 233.167969 187.40625 Z M 233.167969 187.40625 "/><path style=" stroke:none;fill-rule:nonzero;fill:#ffffff;fill-opacity:1;" d="M 243.585938 187.84375 C 242.964844 187.253906 242.101562 186.152344 242.101562 186.152344 C 242.101562 186.152344 242.28125 187.511719 242.28125 188.402344 L 242.28125 193.582031 L 239.890625 193.582031 L 239.890625 181.109375 L 240.148438 181.109375 L 246.402344 186.96875 C 247.007812 187.527344 247.855469 188.660156 247.855469 188.660156 C 247.855469 188.660156 247.6875 187.253906 247.6875 186.410156 L 247.6875 181.230469 L 250.082031 181.230469 L 250.082031 193.703125 L 249.824219 193.703125 Z M 243.585938 187.84375 "/></g></svg>