<svg xmlns="http://www.w3.org/2000/svg" xmlns:xlink="http://www.w3.org/1999/xlink" width="500" zoomAndPan="magnify" viewBox="0 0 375 374.999991" height="500" preserveAspectRatio="xMidYMid meet" version="1.2"><defs><clipPath id="75b18b4eb7"><path d="M 143 184 L 169 184 L 169 211.066406 L 143 211.066406 Z M 143 184 "/></clipPath><clipPath id="15a17da462"><path d="M 233 183 L 262.125 183 L 262.125 211.066406 L 233 211.066406 Z M 233 183 "/></clipPath><clipPath id="9e9e45d0e8"><path d="M 132 163.816406 L 144 163.816406 L 144 176 L 132 176 Z M 132 163.816406 "/></clipPath><clipPath id="9a2bfc0a7f"><path d="M 112.5 173 L 141 173 L 141 211 L 112.5 211 Z M 112.5 173 "/></clipPath></defs><g id="24517a9809"><g clip-rule="nonzero" clip-path="url(#75b18b4eb7)"><path style=" stroke:none;fill-rule:nonzero;fill:#ffffff;fill-opacity:1;" d="M 168.90625 184.472656 L 168.90625 199.640625 C 168.90625 206.261719 163.851562 211.066406 156.179688 211.066406 C 148.503906 211.066406 143.722656 206.261719 143.722656 199.800781 L 143.722656 184.472656 L 152.230469 184.472656 L 152.230469 198.988281 C 152.230469 201.570312 153.933594 203.277344 156.171875 203.277344 C 158.714844 203.277344 160.390625 201.597656 160.390625 198.988281 L 160.390625 184.472656 Z M 168.90625 184.472656 "/></g><path style=" stroke:none;fill-rule:nonzero;fill:#ffffff;fill-opacity:1;" d="M 190.980469 210.523438 L 190.980469 196.03125 C 190.980469 193.128906 188.679688 191.742188 186.632812 191.742188 C 184.582031 191.742188 182.308594 193.128906 182.308594 196.03125 L 182.308594 210.523438 L 173.800781 210.523438 L 173.800781 184.472656 L 181.605469 184.472656 L 181.875 187.210938 C 183.714844 184.875 186.847656 183.921875 189.894531 183.921875 C 194.785156 183.921875 199.488281 187.367188 199.488281 193.585938 L 199.488281 210.519531 L 190.980469 210.519531 Z M 190.980469 210.523438 "/><path style=" stroke:none;fill-rule:nonzero;fill:#ffffff;fill-opacity:1;" d="M 221.621094 210.523438 L 221.621094 196.03125 C 221.621094 193.128906 219.324219 191.742188 217.273438 191.742188 C 215.222656 191.742188 212.949219 193.128906 212.949219 196.03125 L 212.949219 210.523438 L 204.441406 210.523438 L 204.441406 184.472656 L 212.246094 184.472656 L 212.515625 187.210938 C 214.355469 184.875 217.492188 183.921875 220.539062 183.921875 C 225.425781 183.921875 230.132812 187.367188 230.132812 193.585938 L 230.132812 210.519531 L 221.621094 210.519531 Z M 221.621094 210.523438 "/><g clip-rule="nonzero" clip-path="url(#15a17da462)"><path style=" stroke:none;fill-rule:nonzero;fill:#ffffff;fill-opacity:1;" d="M 253.886719 210.523438 L 253.617188 207.785156 C 252.132812 209.632812 249.617188 211.074219 245.972656 211.074219 C 239.054688 211.074219 233.972656 205.316406 233.972656 197.53125 C 233.972656 189.742188 239.054688 183.9375 245.972656 183.9375 C 249.617188 183.9375 252.132812 185.402344 253.617188 187.222656 L 253.886719 184.484375 L 262.125 184.484375 L 262.125 210.539062 L 253.886719 210.539062 Z M 242.402344 197.523438 C 242.402344 201.054688 244.703125 203.523438 247.992188 203.523438 C 251.285156 203.523438 253.585938 201.054688 253.585938 197.523438 C 253.585938 193.992188 251.285156 191.550781 247.992188 191.527344 C 244.695312 191.527344 242.402344 193.992188 242.402344 197.523438 Z M 242.402344 197.523438 "/></g><g clip-rule="nonzero" clip-path="url(#9e9e45d0e8)"><path style=" stroke:none;fill-rule:nonzero;fill:#ffffff;fill-opacity:1;" d="M 137.992188 175.339844 C 141.160156 175.339844 143.730469 172.757812 143.730469 169.578125 C 143.730469 166.394531 141.160156 163.816406 137.992188 163.816406 C 134.824219 163.816406 132.257812 166.394531 132.257812 169.578125 C 132.257812 172.757812 134.824219 175.339844 137.992188 175.339844 Z M 137.992188 175.339844 "/></g><g clip-rule="nonzero" clip-path="url(#9a2bfc0a7f)"><path style=" stroke:none;fill-rule:nonzero;fill:#ffffff;fill-opacity:1;" d="M 131.484375 198.230469 C 135.371094 195.921875 138.046875 191.636719 138.046875 186.859375 C 138.046875 179.074219 131.996094 173.667969 124.078125 173.667969 L 112.660156 173.667969 L 118.421875 181.183594 L 123.460938 181.183594 C 126.734375 181.183594 128.945312 183.433594 128.945312 186.851562 C 128.945312 188.917969 128.054688 190.714844 126.496094 191.710938 L 122.769531 186.851562 L 112.5 186.851562 L 130.214844 210.492188 L 140.882812 210.492188 L 131.484375 198.222656 Z M 131.484375 198.230469 "/></g></g></svg>