<svg xmlns="http://www.w3.org/2000/svg" xmlns:xlink="http://www.w3.org/1999/xlink" width="500" zoomAndPan="magnify" viewBox="0 0 375 374.999991" height="500" preserveAspectRatio="xMidYMid meet" version="1.2"><g id="9ca56fa6f6"><path style=" stroke:none;fill-rule:nonzero;fill:#ffffff;fill-opacity:1;" d="M 220.289062 177.296875 L 215.847656 186.074219 L 211.398438 177.296875 L 204.863281 177.296875 L 215.847656 198.972656 L 226.824219 177.296875 Z M 184.164062 184.960938 C 184.164062 184.300781 183.929688 183.808594 183.464844 183.492188 C 183 183.167969 182.367188 183.011719 181.570312 183.011719 L 178.597656 183.011719 L 178.597656 187.003906 L 181.542969 187.003906 C 182.359375 187.003906 183 186.828125 183.464844 186.476562 C 183.929688 186.128906 184.164062 185.640625 184.164062 185.019531 Z M 200.558594 176.019531 L 211.542969 197.695312 L 205.003906 197.695312 L 200.558594 188.917969 L 196.121094 197.695312 L 183.902344 197.695312 L 180.054688 191.867188 L 178.597656 191.867188 L 178.597656 197.695312 L 171.777344 197.695312 L 171.777344 177.296875 L 181.746094 177.296875 C 183.570312 177.296875 185.074219 177.507812 186.246094 177.925781 C 187.425781 178.339844 188.371094 178.910156 189.089844 179.628906 C 189.710938 180.25 190.179688 180.953125 190.492188 181.726562 C 190.800781 182.503906 190.957031 183.417969 190.957031 184.464844 L 190.957031 184.527344 C 190.957031 186.019531 190.597656 187.285156 189.875 188.3125 C 189.160156 189.339844 188.179688 190.160156 186.933594 190.761719 L 190.476562 195.933594 Z M 231.121094 176.019531 L 220.144531 197.695312 L 226.679688 197.695312 L 231.121094 188.917969 L 235.570312 197.695312 L 242.101562 197.695312 Z M 151.984375 183.0625 L 157.988281 183.0625 L 157.988281 197.695312 L 164.8125 197.695312 L 164.8125 183.0625 L 170.816406 183.0625 L 170.816406 177.296875 L 151.984375 177.296875 Z M 151.738281 188.488281 C 152.15625 189.207031 152.367188 190.082031 152.367188 191.109375 L 152.367188 191.167969 C 152.367188 192.234375 152.152344 193.199219 151.722656 194.054688 C 151.296875 194.910156 150.695312 195.632812 149.917969 196.226562 C 149.140625 196.816406 148.195312 197.273438 147.089844 197.59375 C 145.984375 197.917969 144.738281 198.078125 143.359375 198.078125 C 141.28125 198.078125 139.34375 197.789062 137.542969 197.21875 C 135.746094 196.640625 134.199219 195.78125 132.898438 194.640625 L 136.539062 190.296875 C 137.644531 191.152344 138.816406 191.765625 140.035156 192.132812 C 141.261719 192.503906 142.476562 192.6875 143.679688 192.6875 C 144.304688 192.6875 144.75 192.609375 145.019531 192.453125 C 145.296875 192.296875 145.429688 192.085938 145.429688 191.8125 L 145.429688 191.757812 C 145.429688 191.460938 145.226562 191.214844 144.832031 191.023438 C 144.433594 190.832031 143.6875 190.628906 142.601562 190.414062 C 141.453125 190.179688 140.359375 189.90625 139.324219 189.597656 C 138.285156 189.289062 137.371094 188.886719 136.585938 188.402344 C 135.796875 187.917969 135.171875 187.304688 134.703125 186.566406 C 134.238281 185.828125 134.003906 184.921875 134.003906 183.855469 L 134.003906 183.796875 C 134.003906 182.824219 134.191406 181.917969 134.574219 181.085938 C 134.949219 180.25 135.503906 179.519531 136.230469 178.898438 C 136.960938 178.277344 137.867188 177.792969 138.945312 177.441406 C 140.019531 177.09375 141.261719 176.917969 142.660156 176.917969 C 144.640625 176.917969 146.375 177.152344 147.863281 177.617188 C 149.347656 178.082031 150.683594 178.78125 151.871094 179.714844 L 148.546875 184.320312 C 147.578125 183.617188 146.550781 183.109375 145.472656 182.789062 C 144.390625 182.464844 143.378906 182.304688 142.425781 182.304688 C 141.921875 182.304688 141.546875 182.382812 141.304688 182.539062 C 141.058594 182.695312 140.941406 182.898438 140.941406 183.152344 L 140.941406 183.210938 C 140.941406 183.484375 141.125 183.714844 141.496094 183.910156 C 141.867188 184.105469 142.582031 184.308594 143.652344 184.523438 C 144.953125 184.753906 146.136719 185.039062 147.207031 185.367188 C 148.273438 185.699219 149.195312 186.121094 149.960938 186.636719 C 150.730469 187.152344 151.324219 187.765625 151.738281 188.488281 "/></g></svg>